<svg xmlns="http://www.w3.org/2000/svg" viewBox="0 0 109 67">
<path d="M56.6,25.7c0.4,0.6,0.7,1.3,0.7,2.2c0,1.3-0.5,2.2-1.5,3c-1,0.7-2.4,1-4.2,1H44V17.5h7.2c1.8,0,3.1,0.4,4.1,1
	s1.4,1.6,1.4,2.7c0,0.7-0.2,1.3-0.5,1.8c-0.3,0.5-0.8,1-1.4,1.3C55.6,24.7,56.2,25.1,56.6,25.7z M48.5,20.8V23h2.1
	c1,0,1.5-0.4,1.5-1.1s-0.5-1.1-1.5-1.1H48.5z M52.7,27.4c0-0.8-0.5-1.1-1.5-1.1h-2.7v2.3h2.7C52.2,28.5,52.7,28.1,52.7,27.4z"/>
<path d="M64.5,28.3h-1.2v3.6h-4.5V17.5h6.5c1.3,0,2.3,0.2,3.3,0.7s1.6,1.1,2.1,1.9c0.5,0.8,0.7,1.8,0.7,2.9c0,1-0.2,1.9-0.7,2.7
	s-1.1,1.4-1.9,1.8l2.8,4.5h-4.9L64.5,28.3z M66.3,21.7c-0.3-0.3-0.8-0.4-1.4-0.4h-1.7v3.4h1.7c0.6,0,1.1-0.1,1.4-0.4
	c0.3-0.3,0.5-0.7,0.5-1.3C66.7,22.4,66.6,21.9,66.3,21.7z"/>
<path d="M82,29.4h-5.1L76,31.9h-4.6l5.9-14.4h4.5l5.9,14.4H83L82,29.4z M80.8,25.9l-1.3-3.6l-1.3,3.6H80.8z"/>
<path d="M88.2,17.5h4.5v14.4h-4.5V17.5z"/>
<path d="M108,17.5v14.4h-3.7l-5.1-6.6v6.6h-4.4V17.5h3.7l5.1,6.6v-6.6H108z"/>
<path fill="#24abde" d="M33.7,35.2L28,53h-6.4l-2.9-9.5l-3,9.5H9.2L3.5,35.2h6.2l3.1,10.1l3.3-10.1h5.5l3.1,10.2L28,35.2H33.7z"/>
<path fill="#24abde" d="M38.7,52.2c-1.5-0.8-2.7-1.9-3.6-3.3c-0.9-1.4-1.3-3-1.3-4.8c0-1.8,0.4-3.4,1.3-4.8c0.9-1.4,2.1-2.5,3.6-3.3
	c1.5-0.8,3.3-1.2,5.2-1.2s3.6,0.4,5.2,1.2c1.5,0.8,2.7,1.9,3.6,3.3c0.9,1.4,1.3,3,1.3,4.8c0,1.8-0.4,3.4-1.3,4.8
	c-0.9,1.4-2.1,2.5-3.6,3.3c-1.5,0.8-3.3,1.2-5.2,1.2C42,53.4,40.2,53,38.7,52.2z M45.9,48c0.6-0.4,1.1-0.9,1.4-1.6
	c0.4-0.7,0.5-1.4,0.5-2.4s-0.2-1.7-0.5-2.4c-0.4-0.7-0.8-1.2-1.4-1.6c-0.6-0.4-1.3-0.5-2-0.5s-1.4,0.2-2,0.5
	c-0.6,0.4-1.1,0.9-1.4,1.6c-0.4,0.7-0.5,1.4-0.5,2.4s0.2,1.7,0.5,2.4c0.4,0.7,0.8,1.2,1.4,1.6c0.6,0.4,1.3,0.5,2,0.5
	S45.3,48.3,45.9,48z"/>
<path fill="#24abde" d="M63.5,48.5h-1.6V53h-6V35.2h8.6c1.6,0,3.1,0.3,4.3,0.8s2.2,1.3,2.8,2.3c0.7,1,1,2.2,1,3.6
	c0,1.3-0.3,2.4-0.9,3.3c-0.6,1-1.4,1.7-2.5,2.3L73,53h-6.4L63.5,48.5z M65.9,40.4c-0.4-0.4-1-0.5-1.8-0.5h-2.2V44h2.2
	c0.8,0,1.4-0.2,1.8-0.5c0.4-0.4,0.6-0.9,0.6-1.5C66.5,41.2,66.4,40.7,65.9,40.4z"/>
<path fill="#24abde" d="M81.9,47.1l-1.3,1.5V53h-5.9V35.2h5.9v6.5l5.9-6.5H93L85.9,43l7.5,10h-6.9L81.9,47.1z"/>
<path fill="#24abde" d="M96.4,52.9c-1.4-0.3-2.5-0.8-3.4-1.3l1.9-4.4c0.8,0.5,1.8,0.9,2.8,1.2c1,0.3,2.1,0.4,3,0.4
	c0.8,0,1.4-0.1,1.8-0.2c0.4-0.2,0.5-0.4,0.5-0.7c0-0.4-0.2-0.7-0.7-0.8c-0.5-0.2-1.2-0.4-2.3-0.6c-1.4-0.3-2.5-0.6-3.4-0.9
	c-0.9-0.3-1.7-0.9-2.4-1.6c-0.7-0.8-1-1.8-1-3.1c0-1.1,0.3-2.1,0.9-3c0.6-0.9,1.6-1.6,2.8-2.2c1.3-0.5,2.8-0.8,4.5-0.8
	c1.2,0,2.4,0.1,3.6,0.4c1.2,0.3,2.2,0.7,3.1,1.1l-1.8,4.3c-1.8-0.9-3.4-1.3-5-1.3c-1.5,0-2.3,0.4-2.3,1.1c0,0.4,0.2,0.6,0.7,0.8
	c0.5,0.2,1.2,0.4,2.3,0.6c1.4,0.2,2.5,0.5,3.4,0.9c0.9,0.3,1.8,0.9,2.4,1.6c0.7,0.7,1,1.8,1,3c0,1.1-0.3,2.1-0.9,3
	c-0.6,0.9-1.6,1.6-2.8,2.2c-1.3,0.5-2.8,0.8-4.5,0.8C99.2,53.4,97.8,53.2,96.4,52.9z"/>
<path d="M11,63.1h14.9c0.4-0.2,0.6-0.7,0.6-1.1v-0.5c0-0.7-0.6-1.3-1.3-1.3c0.7,0,1.3-0.6,1.3-1.3v-0.4c0-0.7-0.6-1.3-1.3-1.3
	c0.7,0,1.3-0.6,1.3-1.3v-0.4c0-0.7-0.6-1.3-1.3-1.3H11.7c-0.7,0-1.3,0.6-1.3,1.3v0.4c0,0.7,0.6,1.3,1.3,1.3c-0.7,0-1.3,0.6-1.3,1.3
	v0.4c0,0.7,0.6,1.3,1.3,1.3c-0.7,0-1.3,0.6-1.3,1.3V62C10.3,62.5,10.6,62.9,11,63.1z M13.6,55.8h9.6c0.5,0,1,0.4,1,1
	c0,0.5-0.4,1-1,1h-9.6c-0.5,0-1-0.4-1-1C12.6,56.2,13.1,55.8,13.6,55.8z M13.6,59.2h6.6c0.5,0,1,0.4,1,1s-0.4,1-1,1h-6.6
	c-0.5,0-1-0.4-1-1S13.1,59.2,13.6,59.2z"/>
<path d="M13.5,64.1c0.8,1.3,2.7,2.3,5,2.3s4.2-1,5-2.3H13.5z"/>
<path d="M37.1,17.7C36.3,3.2,23.4,0,18.5,0l0,0l0,0l0,0C13.6,0,0.8,3.2,0,17.7v0c0,5.3,2.4,9.5,4.2,12.5c1,1.7,1.8,3.1,1.8,4l1.4,0
	c0-1.3-0.9-2.9-2-4.8c-1.8-3-4-6.8-4-11.7C2.2,4.4,14,1.5,18.5,1.5l0,0l0,0l0,0c4.5,0,16.4,2.9,17.1,16.3c0,4.9-2.2,8.7-4,11.7
	c-1.1,1.9-2,3.5-2,4.8l1.4,0c0-0.9,0.8-2.4,1.8-4C34.7,27.2,37.1,23.1,37.1,17.7L37.1,17.7z"/>
<path d="M22,30.8c-0.7,0-1.3,0.6-1.3,1.3s0.6,1.3,1.3,1.3c0.6,0,1-0.4,1.2-0.9c1.2-0.4,2.8-1.6,4.5-4.3c1.3-2,0.8-3.1-0.4-4.5
	c-1.4-1.5-2.8-2.3-3.8-2.8c-0.5-0.2-1.1-0.5-1.7-0.1c-0.6,0.4-0.6,1.1-0.6,1.7v3.1c0,0.3,0.2,0.5,0.5,0.5s0.5-0.2,0.5-0.5v-3.1
	c0-0.6,0.1-0.8,0.2-0.9c0,0,0.2-0.1,0.7,0.2c0.9,0.4,2.3,1.2,3.5,2.5c1,1.1,1.3,1.8,0.3,3.3c-1.3,1.9-2.6,3.3-3.8,3.8l0,0
	C22.8,31.1,22.4,30.8,22,30.8z M23.2,32.2c0,0,0-0.1,0-0.1C23.2,32.1,23.2,32.2,23.2,32.2z M23.2,32.4
	C23.2,32.4,23.2,32.4,23.2,32.4C23.2,32.4,23.2,32.4,23.2,32.4z M23.2,32.3C23.2,32.3,23.2,32.3,23.2,32.3
	C23.2,32.3,23.2,32.3,23.2,32.3z M23.2,31.8C23.2,31.8,23.2,31.8,23.2,31.8C23.2,31.8,23.2,31.8,23.2,31.8z M23.2,32L23.2,32
	C23.2,31.9,23.2,31.9,23.2,32z"/>
<path d="M19.1,19.8v4.2v6c0,1,0.5,1.9,1.3,2.4c0-0.1,0-0.1,0-0.2c0-0.3,0.1-0.6,0.3-0.9c-0.4-0.4-0.5-0.9-0.5-1.3v-6v-4v-0.2
	c0-0.5,0-1.6,0.2-1.7c0,0,0.1,0,0.2,0.1c1,0.5,3.2,1.6,4.6,2.8c0.4,0.3,0.7,0.6,1,0.8c1.4,1.1,2.1,1.8,2.9,1.4
	c0.6-0.2,0.8-1,0.9-1.8c0.4-2.5,0.4-4.4,0-6.3c0-0.1-0.1-0.2-0.1-0.4c0.3-0.2,0.5-0.6,0.5-1c0-0.7-0.6-1.3-1.3-1.3
	c-0.7,0-1.3,0.6-1.3,1.3c0,0.7,0.5,1.2,1.1,1.3c0,0,0,0.1,0,0.1c0.5,1.9,0.5,3.7,0.1,6.2c-0.1,0.9-0.3,1-0.3,1
	c-0.2,0.1-1.2-0.7-1.9-1.3c-0.3-0.2-0.7-0.5-1-0.8c-1.4-1.1-3.4-2.2-4.8-2.9c-0.5-0.2-0.9-0.2-1.2,0C19.1,17.6,19.1,18.7,19.1,19.8
	z M29.8,14.8C29.8,14.8,29.9,14.8,29.8,14.8C29.9,14.8,29.8,14.8,29.8,14.8z M29.4,15C29.4,15,29.5,15,29.4,15
	C29.4,15,29.4,15,29.4,15z M29.5,15C29.5,15,29.5,14.9,29.5,15C29.5,14.9,29.5,15,29.5,15z M29.6,14.9
	C29.7,14.9,29.7,14.9,29.6,14.9C29.7,14.9,29.7,14.9,29.6,14.9z M29.7,14.9C29.8,14.9,29.8,14.8,29.7,14.9
	C29.8,14.9,29.7,14.9,29.7,14.9z M29.2,15c0,0-0.1,0-0.1,0C29.2,15,29.2,15,29.2,15z M29.3,15C29.3,15,29.3,15,29.3,15
	C29.3,15,29.3,15,29.3,15z"/>
<path d="M18.6,17.2c0.6,0,1.1-0.5,1.2-1.1c0.4-0.2,0.8-0.4,1.2-0.8c0.1-0.1,0.2-0.2,0.1-0.4c0-0.1-0.1-0.3-0.2-0.4
	c-0.2-0.1-0.3-0.2-0.4-0.3c-0.6-0.4-0.6-0.4-0.6-1.8V8.7c0-0.8,0.4-1.2,1.1-1.4c2.7-0.5,5.7,2.5,7,5.2c0.2-0.2,0.6-0.3,0.9-0.4
	c-0.8-1.8-2.1-3.3-3.6-4.4c-1.3-0.9-2.7-1.4-3.9-1.4c-0.2,0-0.4,0-0.6,0.1c-1.2,0.2-2,1.1-2,2.3v3.9c0,1.6,0.1,1.9,0.9,2.4
	c-0.1,0.1-0.2,0.1-0.3,0.1l0,0c-0.1-0.3-0.5-0.5-0.9-0.5c-0.7,0-1.3,0.6-1.3,1.3S17.9,17.2,18.6,17.2z M19.8,16c0,0,0-0.1,0-0.1
	c0,0,0-0.1,0-0.1c0,0,0,0.1,0,0.1C19.8,16,19.8,16,19.8,16z M19.8,15.7C19.8,15.7,19.8,15.8,19.8,15.7
	C19.8,15.8,19.8,15.7,19.8,15.7z M19.8,15.5L19.8,15.5C19.8,15.5,19.8,15.5,19.8,15.5z M19.8,15.7C19.8,15.6,19.8,15.6,19.8,15.7
	C19.8,15.6,19.8,15.6,19.8,15.7z"/>
<path d="M7.7,23.2C8,23.4,8.5,23.6,9.2,23l2.9-2.4c3.6-2.7,4.5-2.5,4.7-2.4c0.2,0.1,0.2,0.8,0.2,1.3c0,0.1,0,0.2,0,0.2v4.2v6
	c0,0.4-0.1,0.9-0.4,1.2c-0.2-0.2-0.5-0.2-0.7-0.2c-0.7,0-1.3,0.6-1.3,1.3s0.6,1.3,1.3,1.3s1.3-0.6,1.3-1.3c0,0,0-0.1,0-0.1
	c0.5-0.5,0.8-1.2,0.8-2.1v-6v-4.2c0-0.1,0-0.2,0-0.2c0-0.8,0-1.8-0.8-2.2c-1-0.5-2.7,0.2-5.7,2.5c0,0,0,0,0,0l-3,2.4
	c-0.2,0.2-0.3,0.2-0.3,0.2c-0.1,0-0.5-0.7-0.4-3.2c0.1-1.2,0.2-2.6,0.5-3.8c-0.1,0-0.1,0-0.2,0c-0.3,0-0.5-0.1-0.7-0.2
	C6.7,18.3,6.5,22.4,7.7,23.2z"/>
<path d="M9.3,27.6c2.2,2.8,3.9,4.2,5.2,4.7c0-0.1,0-0.1,0-0.2c0-0.3,0.1-0.6,0.2-0.8c-1.3-0.6-2.9-2.1-4.6-4.3
	c-0.1-0.1-0.2-0.4-0.1-0.6c0.1-1,1.4-2.5,3.3-3.9c1.4-1,1.8-0.9,1.8-0.9c0.1,0.1,0.1,0.8,0.1,1c0,0.1,0,0.3,0,0.4v2l0,0
	c-0.5,0.2-0.8,0.6-0.8,1.1c0,0.7,0.6,1.3,1.3,1.3c0.7,0,1.3-0.6,1.3-1.3c0-0.5-0.3-1-0.8-1.1l0,0v-2c0-0.1,0-0.2,0-0.4
	c0-0.7,0.1-1.6-0.6-1.9c-0.6-0.3-1.5,0-2.8,1c-2.2,1.6-3.6,3.2-3.7,4.6C8.9,26.8,9,27.3,9.3,27.6z"/>
<path d="M8.1,15c0.7,0,1.3-0.6,1.3-1.3c0-0.3-0.1-0.7-0.4-0.9l0,0C10.6,9,14.1,7,16.1,7.3c0.8,0.1,1.2,0.6,1.2,1.3v3.9
	c0,0.7-0.3,1.7-1,1.9c-0.2,0-0.3,0.2-0.4,0.4c-0.1,0.2,0,0.4,0.1,0.5c0.3,0.3,0.6,0.5,0.9,0.7c0,0,0,0,0,0c0-0.6,0.3-1.1,0.7-1.4
	c0.4-0.6,0.6-1.4,0.6-2V8.7c0-1.3-0.8-2.1-2-2.3C14,6,9.9,8,8.2,12.5l0,0l0,0c-0.7,0-1.3,0.6-1.3,1.3C6.8,14.5,7.4,15,8.1,15z
	 M8.3,12.5L8.3,12.5L8.3,12.5z M8.7,12.7L8.7,12.7L8.7,12.7z M8.6,12.6L8.6,12.6L8.6,12.6z M8.5,12.6L8.5,12.6L8.5,12.6z M8.4,12.5
	C8.4,12.5,8.4,12.5,8.4,12.5C8.4,12.5,8.4,12.5,8.4,12.5z"/>
</svg>
