<?xml version="1.0" encoding="utf-8"?>
<!-- Generator: Adobe Illustrator 21.1.0, SVG Export Plug-In . SVG Version: 6.00 Build 0)  -->
<svg version="1.1" id="Слой_1" xmlns="http://www.w3.org/2000/svg" xmlns:xlink="http://www.w3.org/1999/xlink" x="0px" y="0px"
	 viewBox="0 0 400 100" style="enable-background:new 0 0 400 100;" xml:space="preserve">
<style type="text/css">
	.st0{fill:#FFFFFF;}
	.st1{fill:#5E90D9;}
</style>
<g>
	<g>
		<polygon class="st0" points="242,91.6 242,51.7 240.4,51.7 238.9,51.7 238.9,91.6 231.2,91.6 231.2,95.6 240.4,95.6 249.7,95.6 
			249.7,91.6 		"/>
	</g>
	<g>
		<g>
			<path class="st0" d="M240.4,13.4c-0.1,0-0.2,0-0.3,0c-0.9,0.2-1.1,1-1.1,1v15.4l1.5,0l0-14L240.4,13.4
				C240.4,13.4,240.4,13.4,240.4,13.4z"/>
		</g>
		<g>
			<path class="st0" d="M240.9,13.4c-0.1,0-0.3-0.1-0.4-0.1v2.5l0,14h1.5V14.4C242,14.4,241.7,13.7,240.9,13.4z"/>
		</g>
		<g>
			<path class="st0" d="M240.4,38.2V3.8l-0.4,0l0,34.5C240.2,38.2,240.3,38.2,240.4,38.2C240.4,38.2,240.4,38.2,240.4,38.2z"/>
		</g>
		<g>
			<path class="st0" d="M240.9,38.3V3.8h-0.4v34.4C240.6,38.2,240.7,38.2,240.9,38.3z"/>
		</g>
		<g>
			<polygon class="st0" points="239,20.8 231.6,20.8 231.6,82.6 238.9,82.6 238.9,73.9 233,73.9 233,70 233,70 233,22.9 239,22.9 
				240.4,22.9 240.4,20.8 			"/>
		</g>
		<g>
			<polygon class="st0" points="238.9,81.3 231.6,81.3 227.6,81.3 227.6,85.9 238.9,85.9 240.4,85.9 240.4,82 240.4,81.3 			"/>
		</g>
		<g>
			<polygon class="st0" points="249.4,81.3 242,81.3 240.4,81.3 240.4,82 240.4,85.9 242,85.9 253.3,85.9 253.3,81.3 			"/>
		</g>
		<g>
			<polygon class="st0" points="242,20.8 240.4,20.8 240.4,22.9 242,22.9 247.9,22.9 247.9,70 247.9,70 247.9,73.9 247.9,73.9 
				247.9,82.6 249.4,82.6 249.4,20.8 			"/>
		</g>
	</g>
	<g>
		<path class="st0" d="M18.4,56.5v24.8H3.6V12.6H26c5.4,0,9.6,1.3,12.7,3.9c3,2.6,4.6,6.3,4.6,11.3v12.7c0,7.9-2.7,12.9-8.1,14.9
			l10.8,26H29.5l-9.2-24.8H18.4z M18.4,25.3v19.4h5.8c1.5,0,2.6-0.3,3.2-1c0.6-0.7,0.9-1.8,0.9-3.5V29.1c0-1.5-0.3-2.4-1-3
			c-0.7-0.5-1.7-0.8-3.1-0.8H18.4z"/>
	</g>
	<g>
		<path class="st0" d="M50.4,64.7V37.8c0-5,1.6-8.9,4.7-11.7c3.1-2.8,7.8-4.2,14.1-4.2c12.1,0,18.1,5.3,18.1,16v20.1H64.7v5.5
			c0,2,0.5,3.4,1.6,4.2c1.1,0.8,3.5,1.2,7.2,1.2c3.7,0,7.8-0.7,12.2-2V80c-4.6,1.3-9.6,1.9-14.9,1.9C57.2,81.9,50.4,76.2,50.4,64.7z
			 M64.7,46.5h8.7V38c0-2.5-1.5-3.8-4.4-3.8s-4.4,1.3-4.4,3.8V46.5z"/>
	</g>
	<g>
		<path class="st0" d="M94.2,7.3h15V24c2.8-1,6.2-1.5,10.2-1.5c4,0,7.1,1,9.4,3.1s3.4,5.2,3.4,9.4v31.7c0,5-1.4,8.6-4.1,11
			c-2.7,2.4-6.4,3.6-11.1,3.6H94.2V7.3z M117,38.7c0-1.6-1-2.4-3-2.4s-3.6,0.4-4.8,1.1v30.1h4c2.6,0,3.9-1.1,3.9-3.2V38.7z"/>
	</g>
	<g>
		<path class="st0" d="M162.5,22.8h15v58.5h-14.1v-2.7c-3.2,1.8-6.9,2.7-11.1,2.7c-4.1,0-7.3-1.1-9.5-3.4c-2.2-2.2-3.3-5.5-3.3-9.7
			V22.8h15.2v42.4c0,1.7,1,2.6,2.9,2.6c1.9,0,3.5-0.4,4.9-1.2V22.8z"/>
	</g>
	<g>
		<path class="st0" d="M186.4,7.3h15v16.6c2.6-0.9,5.5-1.4,8.4-1.4c9.4,0,14.1,4.2,14.1,12.6v46.3h-15.2V38.7c0-1.6-0.9-2.4-2.8-2.4
			c-1.9,0-3.4,0.3-4.5,1v44h-15V7.3z"/>
	</g>
	<g>
		<path class="st0" d="M295.7,25.4c3.5-1.9,7.1-2.9,10.9-2.9c3.8,0,6.8,1,9.1,3.1s3.4,5.2,3.4,9.4v46.3h-15.2V38.7
			c0-1.6-0.9-2.4-2.6-2.4c-1.7,0-3.3,0.4-4.8,1.3v43.7h-15V22.8h14.1V25.4z"/>
	</g>
	<g>
		<path class="st0" d="M326.5,64.7V37.8c0-5,1.6-8.9,4.7-11.7c3.1-2.8,7.8-4.2,14.1-4.2c12.1,0,18.1,5.3,18.1,16v20.1h-22.5v5.5
			c0,2,0.5,3.4,1.6,4.2c1.1,0.8,3.5,1.2,7.2,1.2c3.7,0,7.8-0.7,12.2-2V80c-4.6,1.3-9.6,1.9-14.9,1.9
			C333.4,81.9,326.5,76.2,326.5,64.7z M340.9,46.5h8.7V38c0-2.5-1.5-3.8-4.4-3.8c-2.9,0-4.4,1.3-4.4,3.8V46.5z"/>
	</g>
	<g>
		<path class="st0" d="M390.3,68.7c2,0,3.9-0.5,5.7-1.4v13.3c-2.2,1.1-5.2,1.6-8.8,1.6c-5.6,0-9.6-1.3-12-4
			c-2.4-2.6-3.6-6.5-3.6-11.5V35.4h-5.3V22.8h5.9l4.6-10.1h9.7v10.1h8.8v12.6h-8.8v29.7C386.6,67.5,387.8,68.7,390.3,68.7z"/>
	</g>
	<g>
		<polygon class="st1" points="245,22.8 233,22.8 233,81.3 247.9,81.3 247.9,27.3 247.9,22.8 		"/>
	</g>
	<g>
		<polygon class="st0" points="245.2,21.6 232.5,21.6 232.5,81.3 248.3,81.3 248.3,26.2 248.3,21.6 		"/>
	</g>
	<g>
		<g>
			<rect x="239.2" y="25.9" class="st1" width="7.5" height="2.1"/>
		</g>
		<g>
			<rect x="239.2" y="31" class="st1" width="7.5" height="2.1"/>
		</g>
		<g>
			<rect x="239.2" y="36.1" class="st1" width="7.5" height="2.1"/>
		</g>
		<g>
			<rect x="239.2" y="41.2" class="st1" width="7.5" height="2.1"/>
		</g>
		<g>
			<rect x="239.2" y="46.3" class="st1" width="7.5" height="2.1"/>
		</g>
		<g>
			<rect x="239.2" y="51.3" class="st1" width="7.5" height="2.1"/>
		</g>
		<g>
			<rect x="239.2" y="56.4" class="st1" width="7.5" height="2.1"/>
		</g>
		<g>
			<rect x="239.2" y="61.5" class="st1" width="7.5" height="2.1"/>
		</g>
		<g>
			<rect x="239.2" y="66.6" class="st1" width="7.5" height="2.1"/>
		</g>
	</g>
	<g>
		<path class="st0" d="M269.9,68.1c-3.2-2.6-7.9-2.4-10.9,0.6c-3,3-3.2,7.7-0.6,10.9L269.9,68.1z"/>
		<path class="st0" d="M259.7,80.9c3.2,2.6,7.9,2.4,10.9-0.6c3-3,3.2-7.7,0.6-10.9L259.7,80.9z"/>
	</g>
</g>
</svg>
